<?xml version="1.0" encoding="utf-8"?>
<!-- Generator: Adobe Illustrator 25.2.1, SVG Export Plug-In . SVG Version: 6.00 Build 0)  -->
<svg version="1.1" id="Capa_1" xmlns="http://www.w3.org/2000/svg" xmlns:xlink="http://www.w3.org/1999/xlink" x="0px" y="0px"
	 viewBox="0 0 937.6 256" style="enable-background:new 0 0 937.6 256;" xml:space="preserve">
<style type="text/css">
	.st0{fill:#F08B1D;}
	.st1{fill:#92C82D;}
	.st2{fill:#33BFC1;}
	.st3{fill:#FFFFFF;}
	.st4{fill:#595959;}
</style>
<g id="Logos">
	<polygon class="st0" points="190,31.6 190,109.2 124.5,67.5 	"/>
	<polygon class="st1" points="190,31.6 255.6,67.5 255.6,151 190,109.2 	"/>
	<polygon class="st2" points="124.5,67.5 255.6,151 190,186.4 124.5,151 	"/>
	<path class="st3" d="M258.5,62.3l-65.6-35.9c-1.8-1-3.9-1-5.7,0l-65.6,35.9c-1.9,1.1-3.1,3.1-3.1,5.3V151c0,2.2,1.2,4.2,3.1,5.3
		l65.6,35.4c1.8,1,3.9,1,5.7,0l65.6-35.4c1.9-1,3.1-3.1,3.1-5.3V67.5C261.6,65.3,260.4,63.3,258.5,62.3z M249.7,140.1l-53.7-34.2
		c0-0.2,0-0.3,0-0.4V41.6L249.6,71L249.7,140.1z M184.1,98.4l-47.9-30.5l47.9-26.2V98.4z M190,179.6l-59.6-32.2V78.3l113.4,72.2
		L190,179.6z"/>
	<path class="st4" d="M268.4,56.9l-75.5-40.6c-1.8-0.9-3.9-0.9-5.6,0l-75.5,40.6c-1.9,1-3.2,3.1-3.1,5.3v94.3c0,2.2,1.2,4.2,3.2,5.3
		l75.5,40c1.7,0.9,3.8,0.9,5.6,0l75.5-40c1.9-1,3.2-3.1,3.2-5.3V62.1C271.5,59.9,270.3,57.9,268.4,56.9z M261.6,151
		c0,2.2-1.2,4.2-3.1,5.3l-65.6,35.4c-1.8,1-3.9,1-5.7,0l-65.6-35.4c-1.9-1-3.1-3.1-3.1-5.3V67.5c0-2.2,1.2-4.2,3.1-5.3l65.6-35.9
		c1.8-1,3.9-1,5.7,0l65.6,35.9c1.9,1.1,3.1,3.1,3.1,5.3L261.6,151z"/>
	<path class="st4" d="M314.8,131.3V26h21.8v69.5c8.3-14.7,23.9-23,42.3-23c29.6,0,57.6,21.3,57.6,59c0,35.6-25.3,60.4-61.3,60.4
		C340.1,192,314.8,168.3,314.8,131.3z M414.5,132.3c0-23-15.6-39.5-39-39.5c-23.2,0-38.8,16.5-38.8,39.5s15.6,39.5,38.8,39.5
		C398.9,171.8,414.5,155.2,414.5,132.3z"/>
	<path class="st4" d="M458.6,75.6h21.8V189h-21.8V75.6z"/>
	<path class="st4" d="M504,171l73-76h-69.6V75.6h98.7v17.9l-73,76h75.3V189H504V171z"/>
	<path class="st4" d="M622.3,133.2c0-35.6,25.3-60.6,61.3-60.6c35.6,0,60.4,24.3,60.4,60.6V189h-20v-24.8
		c-7.6,18.4-24.3,27.8-44.1,27.8C650.3,192,622.3,170.6,622.3,133.2z M722.4,132.3c0-23-15.6-39.5-39-39.5
		c-23.4,0-39.1,16.5-39.1,39.5s15.6,39.5,39,39.5S722.4,155.2,722.4,132.3L722.4,132.3z"/>
	<path class="st4" d="M766,202.5h22.3c5.3,13.1,18.6,18.8,35.1,18.8c23.2,0,38.6-11,38.6-40.6v-13.1c-7.8,14.7-23.7,23.4-42.7,23.4
		c-29.4,0-57.4-20.2-57.4-58.8c0-34.4,25.2-59.7,61.1-59.7c35.8,0,60.6,24.1,60.6,60.6v46.7c0,43.6-26.6,60.6-60.2,60.6
		C795.6,240.4,773.8,228.7,766,202.5z M862,132.3c0-23-15.6-39.5-39-39.5c-23.4,0-39,16.6-39,39.5s15.6,38.3,39,38.3
		C846.4,170.6,862,155.2,862,132.3L862,132.3z"/>
	<path class="st4" d="M910.2,75.6H932V189h-21.8V75.6z"/>
</g>
</svg>
